<svg width="20" height="20" viewBox="0 0 20 20" fill="none" xmlns="http://www.w3.org/2000/svg">
<g clip-path="url(#clip0_13_553)">
<path d="M19.8284 0.171708C19.6626 0.00592739 19.414 -0.0450491 19.1965 0.041982L0.36834 7.57314C0.152911 7.65931 0.00865304 7.86447 0.00037181 8.09638C-0.00787036 8.32826 0.121504 8.54314 0.330254 8.64439L7.75477 12.2452L11.3556 19.6697C11.4538 19.8722 11.6589 20 11.8827 20C11.8896 20 11.8966 19.9999 11.9036 19.9996C12.1355 19.9914 12.3407 19.8471 12.4268 19.6317L19.9581 0.80366C20.0451 0.586004 19.9941 0.33745 19.8284 0.171708ZM2.0349 8.16868L16.9812 2.19022L8.07383 11.0975L2.0349 8.16868ZM11.8313 17.9651L8.90246 11.9261L17.8099 3.01881L11.8313 17.9651Z" fill="white"/>
</g>
<defs>
<clipPath id="clip0_13_553">
<rect width="20" height="20" fill="white"/>
</clipPath>
</defs>
</svg>
